<?xml version="1.0" encoding="iso-8859-1"?>
<!-- Uploaded to: SVG Repo, www.svgrepo.com, Generator: SVG Repo Mixer Tools -->
<svg fill="#000000" height="800px" width="800px" version="1.1" id="Layer_1" xmlns="http://www.w3.org/2000/svg" xmlns:xlink="http://www.w3.org/1999/xlink" 
	 viewBox="0 0 512 512" xml:space="preserve">
<g transform="translate(1 1)">
	<g>
		<g>
			<path d="M408.6,16.067h-76.8C331.8,6.68,324.12-1,314.733-1H195.267C185.88-1,178.2,6.68,178.2,16.067h-76.8
				c-14.507,0-25.6,11.093-25.6,25.6V485.4c0,14.507,11.093,25.6,25.6,25.6h307.2c14.507,0,25.6-11.093,25.6-25.6V41.667
				C434.2,27.16,423.107,16.067,408.6,16.067z M195.267,84.333h119.467c9.387,0,17.067-7.68,17.067-17.067H383V459.8H127V67.267
				h51.2C178.2,76.653,185.88,84.333,195.267,84.333z M195.267,16.067h119.467V24.6v34.133v8.533H195.267v-8.533V24.6V16.067z
				 M417.133,485.4c0,5.12-3.413,8.533-8.533,8.533H101.4c-5.12,0-8.533-3.413-8.533-8.533V41.667c0-5.12,3.413-8.533,8.533-8.533
				h76.8V50.2H127c-9.387,0-17.067,7.68-17.067,17.067V459.8c0,9.387,7.68,17.067,17.067,17.067h256
				c9.387,0,17.067-7.68,17.067-17.067V67.267c0-9.387-7.68-17.067-17.067-17.067h-51.2V33.133h76.8c5.12,0,8.533,3.413,8.533,8.533
				V485.4z"/>
			<path d="M144.067,118.467v51.2c0,5.12,3.413,8.533,8.533,8.533h85.333c5.12,0,8.533-3.413,8.533-8.533v-51.2
				c0-5.12-3.413-8.533-8.533-8.533H152.6C147.48,109.933,144.067,113.347,144.067,118.467z M161.133,127H229.4v34.133h-68.267V127z
				"/>
			<path d="M144.067,220.867c0,5.12,3.413,8.533,8.533,8.533h204.8c5.12,0,8.533-3.413,8.533-8.533s-3.413-8.533-8.533-8.533H152.6
				C147.48,212.333,144.067,215.747,144.067,220.867z"/>
			<path d="M152.6,263.533h187.733c5.12,0,8.533-3.413,8.533-8.533s-3.413-8.533-8.533-8.533H152.6c-5.12,0-8.533,3.413-8.533,8.533
				S147.48,263.533,152.6,263.533z"/>
			<path d="M340.333,289.133c0-5.12-3.413-8.533-8.533-8.533H152.6c-5.12,0-8.533,3.413-8.533,8.533s3.413,8.533,8.533,8.533h179.2
				C336.92,297.667,340.333,294.253,340.333,289.133z"/>
			<path d="M345.453,359.107c-4.267-3.413-9.387-1.707-11.947,1.707L297.5,411.222l-18.607-24.809
				c-2.56-3.413-8.533-4.267-11.947-1.707s-4.267,8.533-1.707,11.947l25.121,33.494c0.219,0.339,0.467,0.657,0.729,0.963
				c1.701,2.295,4.135,3.089,6.577,3.089c2.56,0,5.12-0.853,6.827-3.413l42.667-59.733
				C350.573,366.787,348.867,361.667,345.453,359.107z"/>
		</g>
	</g>
</g>
</svg>