<?xml version="1.0" encoding="iso-8859-1"?>
<!-- Uploaded to: SVG Repo, www.svgrepo.com, Generator: SVG Repo Mixer Tools -->
<svg fill="#000000" height="800px" width="800px" version="1.1" id="Layer_1" xmlns="http://www.w3.org/2000/svg" xmlns:xlink="http://www.w3.org/1999/xlink" 
	 viewBox="0 0 512 512" xml:space="preserve">
<g>
	<g>
		<path d="M479.57,124.783L260.256,1.117c-2.642-1.49-5.872-1.49-8.514,0L32.427,124.783c-2.725,1.537-4.41,4.423-4.41,7.55v247.332
			c0,3.128,1.685,6.014,4.41,7.55l140.518,79.235c0.061,0.035,0.121,0.07,0.184,0.103l78.613,44.329
			c1.321,0.745,2.79,1.118,4.258,1.118c1.469,0,2.935-0.372,4.258-1.118l219.315-123.666c2.725-1.537,4.41-4.423,4.41-7.55V132.334
			C483.981,129.205,482.295,126.319,479.57,124.783z M378.906,87.922l-57.707,32.538l0.216-19.877
			c0.024-2.315-0.878-4.543-2.506-6.189c-1.628-1.646-3.847-2.573-6.162-2.573H271.58l57.118-32.211L378.906,87.922z
			 M168.528,444.059l-50.515-28.484v-20.861c0-4.787-3.881-8.668-8.668-8.668c-4.787,0-8.668,3.881-8.668,8.668v11.086
			l-55.327-31.198V147.171l55.327,31.198v187.453c0,4.787,3.881,8.668,8.668,8.668c4.787,0,8.668-3.881,8.668-8.668V188.144
			l50.515,28.484V444.059z M126.987,173.303l58.155-32.79l-0.214,19.877c-0.025,2.314,0.876,4.542,2.505,6.188
			c1.628,1.646,3.847,2.573,6.162,2.573h41.168l-57.569,32.464L126.987,173.303z M247.331,488.493l-61.467-34.66v-227.43
			l61.467,34.66V488.493z M466.646,374.603l-201.98,113.89v-227.43l112.308-63.328c4.17-2.352,5.644-7.638,3.294-11.808
			c-2.351-4.17-7.636-5.644-11.808-3.294l-112.462,63.415l-61.158-34.486l76.906-43.368c0.543-0.28,1.054-0.616,1.523-1
			c1.944-1.589,3.185-4.007,3.185-6.715c0-4.787-3.88-8.668-8.668-8.668h-65.431l0.279-25.816c0.084-1.718-0.341-3.476-1.324-5.036
			c-2.465-3.912-7.565-5.201-11.591-2.931l-80.38,45.321L54.33,132.334L255.999,18.618l55.053,31.043L234.61,92.768
			c-2.806,1.435-4.726,4.355-4.726,7.722c0,4.787,3.882,8.668,8.669,8.668h65.431l-0.28,25.85c-0.079,1.755,0.373,3.547,1.402,5.122
			c1.656,2.534,4.426,3.929,7.265,3.929c1.445,0,2.909-0.362,4.251-1.119l79.93-45.068l61.114,34.46l-54.159,30.539
			c-4.17,2.352-5.644,7.638-3.294,11.808c2.351,4.17,7.639,5.643,11.808,3.294l54.625-30.802V374.603z"/>
	</g>
</g>
<g>
	<g>
		<path d="M366.629,277.475l-23.626-16.418c-2.006-1.394-4.508-1.875-6.888-1.329c-2.382,0.548-4.419,2.073-5.615,4.203
			l-24.38,43.411c-2.344,4.173-0.861,9.458,3.312,11.802c1.343,0.754,2.8,1.112,4.237,1.112c3.031,0,5.975-1.594,7.565-4.425
			l8.156-14.521v108.017c0,4.787,3.88,8.668,8.668,8.668c4.788,0,8.668-3.881,8.668-8.668V284.753l10.012,6.958
			c3.933,2.732,9.332,1.758,12.064-2.173C371.531,285.608,370.559,280.207,366.629,277.475z"/>
	</g>
</g>
<g>
	<g>
		<path d="M426.408,325.227c-4.177-2.345-9.458-0.861-11.802,3.312l-8.157,14.522V235.045c0-4.787-3.88-8.668-8.668-8.668
			c-4.788,0-8.668,3.881-8.668,8.668v124.573l-10.012-6.958c-3.935-2.733-9.333-1.758-12.064,2.172
			c-2.731,3.93-1.759,9.332,2.172,12.064l23.626,16.418c1.465,1.017,3.194,1.55,4.946,1.55c0.648,0,1.299-0.073,1.942-0.22
			c2.381-0.548,4.419-2.073,5.615-4.203l24.381-43.411C432.065,332.855,430.582,327.571,426.408,325.227z"/>
	</g>
</g>
</svg>